M48
; DRILL file {KiCad 9.0.5} date 2026-05-27T12:07:32-0500
; FORMAT={-:-/ absolute / metric / decimal}
; #@! TF.CreationDate,2026-05-27T12:07:32-05:00
; #@! TF.GenerationSoftware,Kicad,Pcbnew,9.0.5
; #@! TF.FileFunction,MixedPlating,1,2
FMAT,2
METRIC
; #@! TA.AperFunction,Plated,PTH,ViaDrill
T1C0.300
; #@! TA.AperFunction,Plated,PTH,ViaDrill
T2C0.400
; #@! TA.AperFunction,Plated,PTH,ComponentDrill
T3C0.500
; #@! TA.AperFunction,Plated,PTH,ViaDrill
T4C0.700
; #@! TA.AperFunction,Plated,PTH,ComponentDrill
T5C0.800
; #@! TA.AperFunction,Plated,PTH,ComponentDrill
T6C1.000
; #@! TA.AperFunction,Plated,PTH,ComponentDrill
T7C1.100
; #@! TA.AperFunction,Plated,PTH,ComponentDrill
T8C1.190
; #@! TA.AperFunction,Plated,PTH,ComponentDrill
T9C1.300
; #@! TA.AperFunction,NonPlated,NPTH,ComponentDrill
T10C3.200
%
G90
G05
T1
X83.162Y-43.089
X83.162Y-54.816
X89.428Y-77.307
X89.84Y-57.748
X91.0Y-130.0
X91.328Y-126.75
X92.78Y-67.457
X92.816Y-91.5
X94.254Y-80.499
X94.461Y-119.316
X94.799Y-77.89
X94.989Y-88.518
X95.54Y-98.923
X96.29Y-87.421
X97.068Y-106.569
X97.945Y-93.311
X100.902Y-66.544
X100.902Y-72.407
X101.207Y-102.361
X102.839Y-88.0
X103.397Y-80.033
X104.526Y-95.293
X104.969Y-104.129
X105.737Y-131.864
X106.503Y-96.42
X106.816Y-122.248
X107.827Y-102.38
X109.314Y-101.979
X109.772Y-93.924
X111.681Y-98.013
X112.05Y-95.912
X113.187Y-101.319
X114.867Y-97.647
X115.758Y-95.679
X116.661Y-98.028
X117.938Y-90.566
X117.98Y-93.398
X118.616Y-75.035
X118.962Y-77.342
X118.965Y-102.378
X118.967Y-116.709
X119.442Y-98.225
X119.679Y-93.423
X121.599Y-84.135
X124.185Y-96.395
X125.857Y-116.931
X125.87Y-97.798
X127.442Y-69.125
X128.318Y-116.824
X128.566Y-96.244
X128.874Y-90.027
X130.469Y-101.725
X130.537Y-128.112
X130.666Y-114.062
X131.059Y-77.649
X131.348Y-99.136
X134.055Y-92.518
X135.138Y-88.876
X137.433Y-78.895
X139.959Y-69.749
X142.433Y-116.133
X142.938Y-133.722
X143.88Y-127.262
X144.587Y-99.853
X145.709Y-96.264
X145.739Y-125.985
X146.27Y-91.164
X148.894Y-103.97
X158.202Y-66.5
X162.296Y-93.269
X169.028Y-77.212
X175.978Y-85.281
X178.178Y-69.492
X179.863Y-86.127
X180.184Y-93.248
X180.794Y-77.63
X180.887Y-90.552
X181.075Y-107.93
X182.678Y-99.793
X184.649Y-71.387
X186.938Y-96.23
X188.25Y-82.161
X191.5Y-77.913
X192.56Y-107.589
X195.671Y-69.365
X213.123Y-107.044
T2
X86.618Y-59.989
T3
X110.0Y-125.0
X111.5Y-125.0
T4
X78.5Y-115.0
X83.162Y-119.341
T5
X104.5Y-117.5
X109.38Y-117.5
X115.46Y-53.95
X123.08Y-53.95
X133.19Y-54.0
X140.81Y-54.0
X152.19Y-54.0
X159.81Y-54.0
X162.69Y-125.5
X170.31Y-125.5
X171.19Y-54.0
X178.81Y-54.0
X182.69Y-125.5
X190.31Y-125.5
X190.69Y-54.0
X198.31Y-54.0
X202.5Y-82.69
X202.5Y-90.31
X205.23Y-125.0
X209.88Y-54.0
X212.85Y-125.0
X217.5Y-54.0
T6
X95.69Y-90.5
X98.23Y-90.5
X100.77Y-90.5
X103.31Y-90.5
T7
X90.45Y-111.96
X90.45Y-114.5
X90.45Y-117.04
X116.42Y-62.5
X118.96Y-62.5
X121.5Y-62.5
X134.92Y-62.5
X137.46Y-62.5
X140.0Y-62.5
X153.46Y-62.5
X156.0Y-62.5
X158.54Y-62.5
X163.46Y-118.95
X166.0Y-118.95
X168.54Y-118.95
X172.46Y-62.55
X175.0Y-62.55
X177.54Y-62.55
X183.96Y-118.95
X186.5Y-118.95
X189.04Y-118.95
X191.5Y-62.5
X192.95Y-84.46
X192.95Y-87.0
X192.95Y-89.54
X194.04Y-62.5
X196.58Y-62.5
X206.5Y-119.0
X209.04Y-119.0
X210.5Y-62.5
X211.58Y-119.0
X213.04Y-62.5
X215.58Y-62.5
T8
X79.0Y-43.56
X79.0Y-46.1
X79.0Y-48.64
X79.0Y-51.18
X79.0Y-53.72
X79.0Y-56.26
X79.0Y-58.8
X79.0Y-61.34
X79.0Y-63.88
X79.0Y-66.42
X79.0Y-68.96
X79.0Y-71.5
X79.0Y-74.04
X79.0Y-76.58
X79.0Y-79.12
X79.0Y-81.66
X79.0Y-89.5
X79.0Y-92.04
X98.0Y-43.6
X98.0Y-46.14
X98.0Y-48.68
X98.0Y-51.22
X98.0Y-53.76
X98.0Y-56.3
X98.0Y-58.84
X98.0Y-61.38
X98.0Y-63.92
X98.0Y-66.46
X98.0Y-69.0
X98.0Y-71.54
X98.0Y-74.08
X98.0Y-76.62
X98.0Y-79.16
X98.0Y-81.7
X146.48Y-83.225
X146.48Y-85.765
X146.5Y-115.0
X146.5Y-117.54
T9
X77.5Y-136.5
X82.5Y-136.5
X112.46Y-42.45
X117.46Y-42.45
X130.5Y-42.5
X135.5Y-42.5
X149.0Y-42.5
X154.0Y-42.5
X164.0Y-136.172
X168.5Y-42.5
X169.0Y-136.172
X173.5Y-42.5
X184.5Y-136.172
X187.5Y-42.328
X189.5Y-136.172
X192.5Y-42.328
X206.5Y-42.328
X207.0Y-136.0
X211.5Y-42.328
X212.0Y-136.0
X212.672Y-85.5
X212.672Y-90.5
T10
X70.5Y-33.5
X70.5Y-146.5
X220.0Y-33.5
X220.0Y-146.5
M30
