%TF.GenerationSoftware,KiCad,Pcbnew,9.0.5*%
%TF.CreationDate,2026-05-27T12:07:41-05:00*%
%TF.ProjectId,Controladora_Semaforos,436f6e74-726f-46c6-9164-6f72615f5365,rev?*%
%TF.SameCoordinates,Original*%
%TF.FileFunction,Soldermask,Top*%
%TF.FilePolarity,Negative*%
%FSLAX46Y46*%
G04 Gerber Fmt 4.6, Leading zero omitted, Abs format (unit mm)*
G04 Created by KiCad (PCBNEW 9.0.5) date 2026-05-27 12:07:41*
%MOMM*%
%LPD*%
G01*
G04 APERTURE LIST*
G04 Aperture macros list*
%AMRoundRect*
0 Rectangle with rounded corners*
0 $1 Rounding radius*
0 $2 $3 $4 $5 $6 $7 $8 $9 X,Y pos of 4 corners*
0 Add a 4 corners polygon primitive as box body*
4,1,4,$2,$3,$4,$5,$6,$7,$8,$9,$2,$3,0*
0 Add four circle primitives for the rounded corners*
1,1,$1+$1,$2,$3*
1,1,$1+$1,$4,$5*
1,1,$1+$1,$6,$7*
1,1,$1+$1,$8,$9*
0 Add four rect primitives between the rounded corners*
20,1,$1+$1,$2,$3,$4,$5,0*
20,1,$1+$1,$4,$5,$6,$7,0*
20,1,$1+$1,$6,$7,$8,$9,0*
20,1,$1+$1,$8,$9,$2,$3,0*%
G04 Aperture macros list end*
%ADD10C,3.200000*%
%ADD11RoundRect,0.250000X0.337500X0.475000X-0.337500X0.475000X-0.337500X-0.475000X0.337500X-0.475000X0*%
%ADD12RoundRect,0.250000X0.350000X0.450000X-0.350000X0.450000X-0.350000X-0.450000X0.350000X-0.450000X0*%
%ADD13R,1.905000X2.000000*%
%ADD14O,1.905000X2.000000*%
%ADD15RoundRect,0.250000X-0.450000X0.350000X-0.450000X-0.350000X0.450000X-0.350000X0.450000X0.350000X0*%
%ADD16RoundRect,0.250000X-1.050000X-1.050000X1.050000X-1.050000X1.050000X1.050000X-1.050000X1.050000X0*%
%ADD17C,2.600000*%
%ADD18RoundRect,0.250001X-0.624999X0.462499X-0.624999X-0.462499X0.624999X-0.462499X0.624999X0.462499X0*%
%ADD19RoundRect,0.250000X0.450000X-0.350000X0.450000X0.350000X-0.450000X0.350000X-0.450000X-0.350000X0*%
%ADD20R,2.000000X1.905000*%
%ADD21O,2.000000X1.905000*%
%ADD22RoundRect,0.250000X0.475000X-0.337500X0.475000X0.337500X-0.475000X0.337500X-0.475000X-0.337500X0*%
%ADD23RoundRect,0.250000X0.550000X0.550000X-0.550000X0.550000X-0.550000X-0.550000X0.550000X-0.550000X0*%
%ADD24C,1.600000*%
%ADD25RoundRect,0.250001X0.462499X0.624999X-0.462499X0.624999X-0.462499X-0.624999X0.462499X-0.624999X0*%
%ADD26RoundRect,0.250000X-1.000000X-0.650000X1.000000X-0.650000X1.000000X0.650000X-1.000000X0.650000X0*%
%ADD27RoundRect,0.250000X-0.845000X0.620000X-0.845000X-0.620000X0.845000X-0.620000X0.845000X0.620000X0*%
%ADD28O,2.190000X1.740000*%
%ADD29RoundRect,0.150000X0.150000X-0.825000X0.150000X0.825000X-0.150000X0.825000X-0.150000X-0.825000X0*%
%ADD30RoundRect,0.250000X1.050000X1.050000X-1.050000X1.050000X-1.050000X-1.050000X1.050000X-1.050000X0*%
%ADD31RoundRect,0.250000X1.050000X-1.050000X1.050000X1.050000X-1.050000X1.050000X-1.050000X-1.050000X0*%
%ADD32RoundRect,0.200000X0.200000X-0.400000X0.200000X0.400000X-0.200000X0.400000X-0.200000X-0.400000X0*%
%ADD33C,1.500000*%
%ADD34RoundRect,0.250000X0.845000X-0.620000X0.845000X0.620000X-0.845000X0.620000X-0.845000X-0.620000X0*%
%ADD35R,1.400000X1.600000*%
%ADD36R,1.700000X1.700000*%
%ADD37C,1.700000*%
%ADD38RoundRect,0.250000X0.550000X-0.550000X0.550000X0.550000X-0.550000X0.550000X-0.550000X-0.550000X0*%
%ADD39RoundRect,0.250000X-0.350000X-0.450000X0.350000X-0.450000X0.350000X0.450000X-0.350000X0.450000X0*%
%ADD40RoundRect,0.250000X-0.337500X-0.475000X0.337500X-0.475000X0.337500X0.475000X-0.337500X0.475000X0*%
%ADD41RoundRect,0.250000X0.850000X0.350000X-0.850000X0.350000X-0.850000X-0.350000X0.850000X-0.350000X0*%
%ADD42RoundRect,0.249997X2.950003X2.650003X-2.950003X2.650003X-2.950003X-2.650003X2.950003X-2.650003X0*%
%ADD43RoundRect,0.200000X0.400000X0.200000X-0.400000X0.200000X-0.400000X-0.200000X0.400000X-0.200000X0*%
%ADD44C,1.000000*%
%ADD45RoundRect,0.075000X0.075000X-0.662500X0.075000X0.662500X-0.075000X0.662500X-0.075000X-0.662500X0*%
%ADD46RoundRect,0.075000X0.662500X-0.075000X0.662500X0.075000X-0.662500X0.075000X-0.662500X-0.075000X0*%
G04 APERTURE END LIST*
D10*
%TO.C,H1*%
X70500000Y-146500000D03*
%TD*%
D11*
%TO.C,C8*%
X106037500Y-125000000D03*
X103962500Y-125000000D03*
%TD*%
D12*
%TO.C,R62*%
X212000000Y-106500000D03*
X210000000Y-106500000D03*
%TD*%
D13*
%TO.C,Q9*%
X206500000Y-119000000D03*
D14*
X209040000Y-119000000D03*
X211580000Y-119000000D03*
%TD*%
D15*
%TO.C,R51*%
X185000000Y-83000000D03*
X185000000Y-85000000D03*
%TD*%
D13*
%TO.C,Q1*%
X121500000Y-62500000D03*
D14*
X118960000Y-62500000D03*
X116420000Y-62500000D03*
%TD*%
D11*
%TO.C,C20*%
X186037500Y-66500000D03*
X183962500Y-66500000D03*
%TD*%
D12*
%TO.C,R33*%
X148000000Y-60000000D03*
X146000000Y-60000000D03*
%TD*%
D16*
%TO.C,J15*%
X184500000Y-136172500D03*
D17*
X189500000Y-136172500D03*
%TD*%
D18*
%TO.C,D1*%
X133500000Y-120012500D03*
X133500000Y-122987500D03*
%TD*%
D12*
%TO.C,R56*%
X170000000Y-111500000D03*
X168000000Y-111500000D03*
%TD*%
D19*
%TO.C,R53*%
X196000000Y-98500000D03*
X196000000Y-96500000D03*
%TD*%
D18*
%TO.C,D3*%
X141000000Y-102000000D03*
X141000000Y-104975000D03*
%TD*%
D12*
%TO.C,R60*%
X206500000Y-106500000D03*
X204500000Y-106500000D03*
%TD*%
D16*
%TO.C,J1*%
X77500000Y-136500000D03*
D17*
X82500000Y-136500000D03*
%TD*%
D12*
%TO.C,R7*%
X147000000Y-128000000D03*
X145000000Y-128000000D03*
%TD*%
%TO.C,R30*%
X153960000Y-70700000D03*
X151960000Y-70700000D03*
%TD*%
D20*
%TO.C,Q7*%
X192950000Y-89540000D03*
D21*
X192950000Y-87000000D03*
X192950000Y-84460000D03*
%TD*%
D12*
%TO.C,R64*%
X89000000Y-86000000D03*
X87000000Y-86000000D03*
%TD*%
D22*
%TO.C,C22*%
X189500000Y-98500000D03*
X189500000Y-96425000D03*
%TD*%
D23*
%TO.C,D28*%
X212850000Y-125000000D03*
D24*
X205230000Y-125000000D03*
%TD*%
D25*
%TO.C,D29*%
X178487500Y-130000000D03*
X175512500Y-130000000D03*
%TD*%
D12*
%TO.C,R65*%
X88500000Y-78400000D03*
X86500000Y-78400000D03*
%TD*%
D26*
%TO.C,D8*%
X78000000Y-125000000D03*
X82000000Y-125000000D03*
%TD*%
D12*
%TO.C,R73*%
X178500000Y-123000000D03*
X176500000Y-123000000D03*
%TD*%
D18*
%TO.C,D2*%
X138000000Y-120012500D03*
X138000000Y-122987500D03*
%TD*%
D12*
%TO.C,R28*%
X129500000Y-60500000D03*
X127500000Y-60500000D03*
%TD*%
D11*
%TO.C,C13*%
X91000000Y-125500000D03*
X88925000Y-125500000D03*
%TD*%
D27*
%TO.C,J12*%
X146480000Y-83225000D03*
D28*
X146480000Y-85765000D03*
%TD*%
D13*
%TO.C,Q3*%
X158540000Y-62500000D03*
D14*
X156000000Y-62500000D03*
X153460000Y-62500000D03*
%TD*%
D11*
%TO.C,C9*%
X106037500Y-130500000D03*
X103962500Y-130500000D03*
%TD*%
D13*
%TO.C,Q2*%
X140000000Y-62500000D03*
D14*
X137460000Y-62500000D03*
X134920000Y-62500000D03*
%TD*%
D12*
%TO.C,R35*%
X173000000Y-70700000D03*
X171000000Y-70700000D03*
%TD*%
D11*
%TO.C,C27*%
X88537500Y-52500000D03*
X86462500Y-52500000D03*
%TD*%
D12*
%TO.C,R48*%
X205000000Y-60000000D03*
X203000000Y-60000000D03*
%TD*%
%TO.C,R4*%
X98000000Y-108000000D03*
X96000000Y-108000000D03*
%TD*%
D29*
%TO.C,U3*%
X133095000Y-87475000D03*
X134365000Y-87475000D03*
X135635000Y-87475000D03*
X136905000Y-87475000D03*
X136905000Y-82525000D03*
X135635000Y-82525000D03*
X134365000Y-82525000D03*
X133095000Y-82525000D03*
%TD*%
D30*
%TO.C,J3*%
X117460000Y-42450000D03*
D17*
X112460000Y-42450000D03*
%TD*%
D12*
%TO.C,R47*%
X216500000Y-71000000D03*
X214500000Y-71000000D03*
%TD*%
D11*
%TO.C,C19*%
X167037500Y-66500000D03*
X164962500Y-66500000D03*
%TD*%
D31*
%TO.C,J9*%
X212672500Y-90500000D03*
D17*
X212672500Y-85500000D03*
%TD*%
D23*
%TO.C,D18*%
X178810000Y-54000000D03*
D24*
X171190000Y-54000000D03*
%TD*%
D11*
%TO.C,C4*%
X128537500Y-119000000D03*
X126462500Y-119000000D03*
%TD*%
D12*
%TO.C,R22*%
X117460000Y-70950000D03*
X115460000Y-70950000D03*
%TD*%
D13*
%TO.C,Q10*%
X183960000Y-118950000D03*
D14*
X186500000Y-118950000D03*
X189040000Y-118950000D03*
%TD*%
D12*
%TO.C,R29*%
X153960000Y-76700000D03*
X151960000Y-76700000D03*
%TD*%
D32*
%TO.C,U11*%
X202730000Y-77650000D03*
X205270000Y-77650000D03*
X205270000Y-71350000D03*
X202730000Y-71350000D03*
%TD*%
D25*
%TO.C,D27*%
X200000000Y-129500000D03*
X197025000Y-129500000D03*
%TD*%
%TO.C,D19*%
X186487500Y-54000000D03*
X183512500Y-54000000D03*
%TD*%
D11*
%TO.C,C18*%
X148037500Y-66500000D03*
X145962500Y-66500000D03*
%TD*%
D33*
%TO.C,Y1*%
X109380000Y-117500000D03*
X104500000Y-117500000D03*
%TD*%
D32*
%TO.C,U10*%
X183730000Y-77650000D03*
X186270000Y-77650000D03*
X186270000Y-71350000D03*
X183730000Y-71350000D03*
%TD*%
D11*
%TO.C,C17*%
X129537500Y-66500000D03*
X127462500Y-66500000D03*
%TD*%
D12*
%TO.C,R63*%
X199000000Y-122000000D03*
X197000000Y-122000000D03*
%TD*%
D16*
%TO.C,J13*%
X164000000Y-136172500D03*
D17*
X169000000Y-136172500D03*
%TD*%
D12*
%TO.C,R41*%
X197500000Y-76700000D03*
X195500000Y-76700000D03*
%TD*%
D13*
%TO.C,Q5*%
X196580000Y-62500000D03*
D14*
X194040000Y-62500000D03*
X191500000Y-62500000D03*
%TD*%
D10*
%TO.C,H2*%
X220000000Y-146500000D03*
%TD*%
D32*
%TO.C,U9*%
X164730000Y-77650000D03*
X167270000Y-77650000D03*
X167270000Y-71350000D03*
X164730000Y-71350000D03*
%TD*%
D12*
%TO.C,R18*%
X96500000Y-102000000D03*
X94500000Y-102000000D03*
%TD*%
D16*
%TO.C,J11*%
X207000000Y-136000000D03*
D17*
X212000000Y-136000000D03*
%TD*%
D12*
%TO.C,R46*%
X216500000Y-77000000D03*
X214500000Y-77000000D03*
%TD*%
%TO.C,R16*%
X104500000Y-102000000D03*
X102500000Y-102000000D03*
%TD*%
D11*
%TO.C,C7*%
X98075000Y-119500000D03*
X96000000Y-119500000D03*
%TD*%
D34*
%TO.C,J14*%
X79000000Y-92040000D03*
D28*
X79000000Y-89500000D03*
%TD*%
D12*
%TO.C,R15*%
X135000000Y-93500000D03*
X133000000Y-93500000D03*
%TD*%
D10*
%TO.C,H4*%
X70500000Y-33500000D03*
%TD*%
D30*
%TO.C,J7*%
X192500000Y-42327500D03*
D17*
X187500000Y-42327500D03*
%TD*%
D25*
%TO.C,D17*%
X167487500Y-54000000D03*
X164512500Y-54000000D03*
%TD*%
D32*
%TO.C,U8*%
X145730000Y-77650000D03*
X148270000Y-77650000D03*
X148270000Y-71350000D03*
X145730000Y-71350000D03*
%TD*%
D23*
%TO.C,D26*%
X170310000Y-125500000D03*
D24*
X162690000Y-125500000D03*
%TD*%
D12*
%TO.C,R57*%
X170000000Y-106500000D03*
X168000000Y-106500000D03*
%TD*%
D11*
%TO.C,C12*%
X91000000Y-132000000D03*
X88925000Y-132000000D03*
%TD*%
D32*
%TO.C,U14*%
X197230000Y-112150000D03*
X199770000Y-112150000D03*
X199770000Y-105850000D03*
X197230000Y-105850000D03*
%TD*%
D30*
%TO.C,J5*%
X154000000Y-42500000D03*
D17*
X149000000Y-42500000D03*
%TD*%
D25*
%TO.C,D13*%
X129987500Y-54000000D03*
X127012500Y-54000000D03*
%TD*%
D11*
%TO.C,C15*%
X91000000Y-97000000D03*
X88925000Y-97000000D03*
%TD*%
%TO.C,C24*%
X199537500Y-116000000D03*
X197462500Y-116000000D03*
%TD*%
D20*
%TO.C,U4*%
X90450000Y-117040000D03*
D21*
X90450000Y-114500000D03*
X90450000Y-111960000D03*
%TD*%
D35*
%TO.C,SW1*%
X116250000Y-131500000D03*
X116250000Y-123500000D03*
X120750000Y-131500000D03*
X120750000Y-123500000D03*
%TD*%
D12*
%TO.C,R59*%
X206500000Y-111500000D03*
X204500000Y-111500000D03*
%TD*%
%TO.C,R36*%
X178500000Y-76700000D03*
X176500000Y-76700000D03*
%TD*%
D25*
%TO.C,D25*%
X159000000Y-129500000D03*
X156025000Y-129500000D03*
%TD*%
D12*
%TO.C,R27*%
X140500000Y-71000000D03*
X138500000Y-71000000D03*
%TD*%
%TO.C,R19*%
X122460000Y-76950000D03*
X120460000Y-76950000D03*
%TD*%
D25*
%TO.C,D15*%
X148487500Y-54000000D03*
X145512500Y-54000000D03*
%TD*%
D11*
%TO.C,C28*%
X88537500Y-47500000D03*
X86462500Y-47500000D03*
%TD*%
D12*
%TO.C,R6*%
X141500000Y-128000000D03*
X139500000Y-128000000D03*
%TD*%
%TO.C,R43*%
X186000000Y-60000000D03*
X184000000Y-60000000D03*
%TD*%
%TO.C,R14*%
X135000000Y-98000000D03*
X133000000Y-98000000D03*
%TD*%
D36*
%TO.C,J2*%
X95690000Y-90500000D03*
D37*
X98230000Y-90500000D03*
X100770000Y-90500000D03*
X103310000Y-90500000D03*
%TD*%
D12*
%TO.C,R42*%
X197500000Y-70700000D03*
X195500000Y-70700000D03*
%TD*%
D18*
%TO.C,D4*%
X141000000Y-95025000D03*
X141000000Y-98000000D03*
%TD*%
D25*
%TO.C,D10*%
X97487500Y-97000000D03*
X94512500Y-97000000D03*
%TD*%
D38*
%TO.C,D24*%
X202500000Y-90310000D03*
D24*
X202500000Y-82690000D03*
%TD*%
D30*
%TO.C,J8*%
X211500000Y-42327500D03*
D17*
X206500000Y-42327500D03*
%TD*%
D19*
%TO.C,R5*%
X121000000Y-118000000D03*
X121000000Y-116000000D03*
%TD*%
D23*
%TO.C,D16*%
X159810000Y-54000000D03*
D24*
X152190000Y-54000000D03*
%TD*%
D11*
%TO.C,C14*%
X90937500Y-101927500D03*
X88862500Y-101927500D03*
%TD*%
D27*
%TO.C,J17*%
X98000000Y-43600000D03*
D28*
X98000000Y-46140000D03*
X98000000Y-48680000D03*
X98000000Y-51220000D03*
X98000000Y-53760000D03*
X98000000Y-56300000D03*
X98000000Y-58840000D03*
X98000000Y-61380000D03*
X98000000Y-63920000D03*
X98000000Y-66460000D03*
X98000000Y-69000000D03*
X98000000Y-71540000D03*
X98000000Y-74080000D03*
X98000000Y-76620000D03*
X98000000Y-79160000D03*
X98000000Y-81700000D03*
%TD*%
D25*
%TO.C,D9*%
X97487500Y-125500000D03*
X94512500Y-125500000D03*
%TD*%
%TO.C,D5*%
X105000000Y-107500000D03*
X102025000Y-107500000D03*
%TD*%
D11*
%TO.C,C1*%
X128537500Y-134000000D03*
X126462500Y-134000000D03*
%TD*%
D12*
%TO.C,R45*%
X211000000Y-71000000D03*
X209000000Y-71000000D03*
%TD*%
%TO.C,R21*%
X117460000Y-76950000D03*
X115460000Y-76950000D03*
%TD*%
D26*
%TO.C,D6*%
X78000000Y-109000000D03*
X82000000Y-109000000D03*
%TD*%
D13*
%TO.C,Q4*%
X177540000Y-62550000D03*
D14*
X175000000Y-62550000D03*
X172460000Y-62550000D03*
%TD*%
D23*
%TO.C,D14*%
X140810000Y-54000000D03*
D24*
X133190000Y-54000000D03*
%TD*%
D14*
%TO.C,Q8*%
X168540000Y-118950000D03*
X166000000Y-118950000D03*
D13*
X163460000Y-118950000D03*
%TD*%
D30*
%TO.C,J4*%
X135500000Y-42500000D03*
D17*
X130500000Y-42500000D03*
%TD*%
D25*
%TO.C,D12*%
X111947500Y-53950000D03*
X108972500Y-53950000D03*
%TD*%
D12*
%TO.C,R10*%
X148000000Y-100000000D03*
X146000000Y-100000000D03*
%TD*%
%TO.C,R44*%
X211000000Y-77000000D03*
X209000000Y-77000000D03*
%TD*%
D23*
%TO.C,D30*%
X190310000Y-125500000D03*
D24*
X182690000Y-125500000D03*
%TD*%
D39*
%TO.C,R55*%
X162500000Y-111500000D03*
X164500000Y-111500000D03*
%TD*%
D12*
%TO.C,R58*%
X158500000Y-123500000D03*
X156500000Y-123500000D03*
%TD*%
D11*
%TO.C,C2*%
X128537500Y-129000000D03*
X126462500Y-129000000D03*
%TD*%
D23*
%TO.C,D20*%
X198310000Y-54000000D03*
D24*
X190690000Y-54000000D03*
%TD*%
D12*
%TO.C,R32*%
X159000000Y-70700000D03*
X157000000Y-70700000D03*
%TD*%
D13*
%TO.C,Q6*%
X215580000Y-62500000D03*
D14*
X213040000Y-62500000D03*
X210500000Y-62500000D03*
%TD*%
D11*
%TO.C,C30*%
X178500000Y-116500000D03*
X176425000Y-116500000D03*
%TD*%
%TO.C,C26*%
X88537500Y-57500000D03*
X86462500Y-57500000D03*
%TD*%
D32*
%TO.C,U7*%
X127230000Y-77650000D03*
X129770000Y-77650000D03*
X129770000Y-71350000D03*
X127230000Y-71350000D03*
%TD*%
D12*
%TO.C,R17*%
X97000000Y-132000000D03*
X95000000Y-132000000D03*
%TD*%
%TO.C,R20*%
X122460000Y-70950000D03*
X120460000Y-70950000D03*
%TD*%
D25*
%TO.C,D21*%
X205475000Y-54000000D03*
X202500000Y-54000000D03*
%TD*%
D12*
%TO.C,R66*%
X88500000Y-73500000D03*
X86500000Y-73500000D03*
%TD*%
D11*
%TO.C,C6*%
X98037500Y-113500000D03*
X95962500Y-113500000D03*
%TD*%
D15*
%TO.C,R49*%
X185000000Y-89500000D03*
X185000000Y-91500000D03*
%TD*%
D11*
%TO.C,C23*%
X158537500Y-117000000D03*
X156462500Y-117000000D03*
%TD*%
D12*
%TO.C,R40*%
X192000000Y-70700000D03*
X190000000Y-70700000D03*
%TD*%
D26*
%TO.C,D7*%
X78000000Y-117000000D03*
X82000000Y-117000000D03*
%TD*%
D12*
%TO.C,R34*%
X173000000Y-76700000D03*
X171000000Y-76700000D03*
%TD*%
D23*
%TO.C,D22*%
X217500000Y-54000000D03*
D24*
X209880000Y-54000000D03*
%TD*%
D39*
%TO.C,R13*%
X139500000Y-134000000D03*
X141500000Y-134000000D03*
%TD*%
D11*
%TO.C,C16*%
X110997500Y-66450000D03*
X108922500Y-66450000D03*
%TD*%
D12*
%TO.C,R61*%
X212000000Y-111500000D03*
X210000000Y-111500000D03*
%TD*%
%TO.C,R67*%
X88500000Y-68500000D03*
X86500000Y-68500000D03*
%TD*%
%TO.C,R24*%
X135500000Y-77000000D03*
X133500000Y-77000000D03*
%TD*%
D15*
%TO.C,R52*%
X179550000Y-83000000D03*
X179550000Y-85000000D03*
%TD*%
D23*
%TO.C,D11*%
X123080000Y-53950000D03*
D24*
X115460000Y-53950000D03*
%TD*%
D39*
%TO.C,R54*%
X162500000Y-106500000D03*
X164500000Y-106500000D03*
%TD*%
D18*
%TO.C,D23*%
X202500000Y-96012500D03*
X202500000Y-98987500D03*
%TD*%
D15*
%TO.C,R50*%
X179500000Y-89500000D03*
X179500000Y-91500000D03*
%TD*%
D12*
%TO.C,R26*%
X140500000Y-76950000D03*
X138500000Y-76950000D03*
%TD*%
D11*
%TO.C,C21*%
X205037500Y-66500000D03*
X202962500Y-66500000D03*
%TD*%
D29*
%TO.C,U2*%
X132960000Y-114450000D03*
X134230000Y-114450000D03*
X135500000Y-114450000D03*
X136770000Y-114450000D03*
X136770000Y-109500000D03*
X135500000Y-109500000D03*
X134230000Y-109500000D03*
X132960000Y-109500000D03*
%TD*%
D34*
%TO.C,J16*%
X79000000Y-81660000D03*
D28*
X79000000Y-79120000D03*
X79000000Y-76580000D03*
X79000000Y-74040000D03*
X79000000Y-71500000D03*
X79000000Y-68960000D03*
X79000000Y-66420000D03*
X79000000Y-63880000D03*
X79000000Y-61340000D03*
X79000000Y-58800000D03*
X79000000Y-56260000D03*
X79000000Y-53720000D03*
X79000000Y-51180000D03*
X79000000Y-48640000D03*
X79000000Y-46100000D03*
X79000000Y-43560000D03*
%TD*%
D12*
%TO.C,R9*%
X148000000Y-105450000D03*
X146000000Y-105450000D03*
%TD*%
%TO.C,R31*%
X159000000Y-76700000D03*
X157000000Y-76700000D03*
%TD*%
%TO.C,R38*%
X167000000Y-60000000D03*
X165000000Y-60000000D03*
%TD*%
D32*
%TO.C,U15*%
X176230000Y-112150000D03*
X178770000Y-112150000D03*
X178770000Y-105850000D03*
X176230000Y-105850000D03*
%TD*%
D10*
%TO.C,H3*%
X220000000Y-33500000D03*
%TD*%
D12*
%TO.C,R12*%
X135462500Y-128000000D03*
X133462500Y-128000000D03*
%TD*%
D40*
%TO.C,C11*%
X132962500Y-103500000D03*
X135037500Y-103500000D03*
%TD*%
D12*
%TO.C,R23*%
X111460000Y-60450000D03*
X109460000Y-60450000D03*
%TD*%
%TO.C,R8*%
X147000000Y-134000000D03*
X145000000Y-134000000D03*
%TD*%
D11*
%TO.C,C29*%
X88537500Y-42500000D03*
X86462500Y-42500000D03*
%TD*%
D12*
%TO.C,R1*%
X128500000Y-114000000D03*
X126500000Y-114000000D03*
%TD*%
D41*
%TO.C,U5*%
X84700000Y-103207500D03*
X84700000Y-100927500D03*
D42*
X78400000Y-100927500D03*
D41*
X84700000Y-98647500D03*
%TD*%
D43*
%TO.C,U12*%
X185150000Y-98770000D03*
X185150000Y-96230000D03*
X178850000Y-96230000D03*
X178850000Y-98770000D03*
%TD*%
D32*
%TO.C,U6*%
X108690000Y-77600000D03*
X111230000Y-77600000D03*
X111230000Y-71300000D03*
X108690000Y-71300000D03*
%TD*%
D11*
%TO.C,C25*%
X89000000Y-91500000D03*
X86925000Y-91500000D03*
%TD*%
D32*
%TO.C,U13*%
X156230000Y-112650000D03*
X158770000Y-112650000D03*
X158770000Y-106350000D03*
X156230000Y-106350000D03*
%TD*%
D30*
%TO.C,J6*%
X173500000Y-42500000D03*
D17*
X168500000Y-42500000D03*
%TD*%
D22*
%TO.C,C5*%
X116000000Y-118537500D03*
X116000000Y-116462500D03*
%TD*%
D44*
%TO.C,Y2*%
X110000000Y-125000000D03*
X111500000Y-125000000D03*
%TD*%
D11*
%TO.C,C10*%
X135500000Y-133500000D03*
X133425000Y-133500000D03*
%TD*%
D27*
%TO.C,J10*%
X146500000Y-115000000D03*
D28*
X146500000Y-117540000D03*
%TD*%
D12*
%TO.C,R69*%
X185000000Y-111500000D03*
X183000000Y-111500000D03*
%TD*%
%TO.C,R39*%
X192000000Y-76700000D03*
X190000000Y-76700000D03*
%TD*%
%TO.C,R2*%
X104500000Y-96500000D03*
X102500000Y-96500000D03*
%TD*%
%TO.C,R72*%
X190000000Y-106550000D03*
X188000000Y-106550000D03*
%TD*%
%TO.C,R68*%
X88500000Y-62500000D03*
X86500000Y-62500000D03*
%TD*%
D11*
%TO.C,C3*%
X128537500Y-124000000D03*
X126462500Y-124000000D03*
%TD*%
D12*
%TO.C,R70*%
X185000000Y-106550000D03*
X183000000Y-106550000D03*
%TD*%
%TO.C,R37*%
X178500000Y-70700000D03*
X176500000Y-70700000D03*
%TD*%
%TO.C,R25*%
X135500000Y-71000000D03*
X133500000Y-71000000D03*
%TD*%
%TO.C,R71*%
X190000000Y-111500000D03*
X188000000Y-111500000D03*
%TD*%
D45*
%TO.C,U1*%
X115000000Y-100325000D03*
X115500000Y-100325000D03*
X116000000Y-100325000D03*
X116500000Y-100325000D03*
X117000000Y-100325000D03*
X117500000Y-100325000D03*
X118000000Y-100325000D03*
X118500000Y-100325000D03*
X119000000Y-100325000D03*
X119500000Y-100325000D03*
X120000000Y-100325000D03*
X120500000Y-100325000D03*
D46*
X121912500Y-98912500D03*
X121912500Y-98412500D03*
X121912500Y-97912500D03*
X121912500Y-97412500D03*
X121912500Y-96912500D03*
X121912500Y-96412500D03*
X121912500Y-95912500D03*
X121912500Y-95412500D03*
X121912500Y-94912500D03*
X121912500Y-94412500D03*
X121912500Y-93912500D03*
X121912500Y-93412500D03*
D45*
X120500000Y-92000000D03*
X120000000Y-92000000D03*
X119500000Y-92000000D03*
X119000000Y-92000000D03*
X118500000Y-92000000D03*
X118000000Y-92000000D03*
X117500000Y-92000000D03*
X117000000Y-92000000D03*
X116500000Y-92000000D03*
X116000000Y-92000000D03*
X115500000Y-92000000D03*
X115000000Y-92000000D03*
D46*
X113587500Y-93412500D03*
X113587500Y-93912500D03*
X113587500Y-94412500D03*
X113587500Y-94912500D03*
X113587500Y-95412500D03*
X113587500Y-95912500D03*
X113587500Y-96412500D03*
X113587500Y-96912500D03*
X113587500Y-97412500D03*
X113587500Y-97912500D03*
X113587500Y-98412500D03*
X113587500Y-98912500D03*
%TD*%
D12*
%TO.C,R11*%
X148000000Y-94500000D03*
X146000000Y-94500000D03*
%TD*%
M02*
