%TF.GenerationSoftware,KiCad,Pcbnew,9.0.5*%
%TF.CreationDate,2026-05-27T12:07:41-05:00*%
%TF.ProjectId,Controladora_Semaforos,436f6e74-726f-46c6-9164-6f72615f5365,rev?*%
%TF.SameCoordinates,Original*%
%TF.FileFunction,Soldermask,Bot*%
%TF.FilePolarity,Negative*%
%FSLAX46Y46*%
G04 Gerber Fmt 4.6, Leading zero omitted, Abs format (unit mm)*
G04 Created by KiCad (PCBNEW 9.0.5) date 2026-05-27 12:07:41*
%MOMM*%
%LPD*%
G01*
G04 APERTURE LIST*
G04 Aperture macros list*
%AMRoundRect*
0 Rectangle with rounded corners*
0 $1 Rounding radius*
0 $2 $3 $4 $5 $6 $7 $8 $9 X,Y pos of 4 corners*
0 Add a 4 corners polygon primitive as box body*
4,1,4,$2,$3,$4,$5,$6,$7,$8,$9,$2,$3,0*
0 Add four circle primitives for the rounded corners*
1,1,$1+$1,$2,$3*
1,1,$1+$1,$4,$5*
1,1,$1+$1,$6,$7*
1,1,$1+$1,$8,$9*
0 Add four rect primitives between the rounded corners*
20,1,$1+$1,$2,$3,$4,$5,0*
20,1,$1+$1,$4,$5,$6,$7,0*
20,1,$1+$1,$6,$7,$8,$9,0*
20,1,$1+$1,$8,$9,$2,$3,0*%
G04 Aperture macros list end*
%ADD10C,3.200000*%
%ADD11R,1.905000X2.000000*%
%ADD12O,1.905000X2.000000*%
%ADD13RoundRect,0.250000X-1.050000X-1.050000X1.050000X-1.050000X1.050000X1.050000X-1.050000X1.050000X0*%
%ADD14C,2.600000*%
%ADD15R,2.000000X1.905000*%
%ADD16O,2.000000X1.905000*%
%ADD17RoundRect,0.250000X0.550000X0.550000X-0.550000X0.550000X-0.550000X-0.550000X0.550000X-0.550000X0*%
%ADD18C,1.600000*%
%ADD19RoundRect,0.250000X-0.845000X0.620000X-0.845000X-0.620000X0.845000X-0.620000X0.845000X0.620000X0*%
%ADD20O,2.190000X1.740000*%
%ADD21RoundRect,0.250000X1.050000X1.050000X-1.050000X1.050000X-1.050000X-1.050000X1.050000X-1.050000X0*%
%ADD22RoundRect,0.250000X1.050000X-1.050000X1.050000X1.050000X-1.050000X1.050000X-1.050000X-1.050000X0*%
%ADD23C,1.500000*%
%ADD24RoundRect,0.250000X0.845000X-0.620000X0.845000X0.620000X-0.845000X0.620000X-0.845000X-0.620000X0*%
%ADD25R,1.700000X1.700000*%
%ADD26C,1.700000*%
%ADD27RoundRect,0.250000X0.550000X-0.550000X0.550000X0.550000X-0.550000X0.550000X-0.550000X-0.550000X0*%
%ADD28C,1.000000*%
G04 APERTURE END LIST*
D10*
%TO.C,H1*%
X70500000Y-146500000D03*
%TD*%
D11*
%TO.C,Q9*%
X206500000Y-119000000D03*
D12*
X209040000Y-119000000D03*
X211580000Y-119000000D03*
%TD*%
D11*
%TO.C,Q1*%
X121500000Y-62500000D03*
D12*
X118960000Y-62500000D03*
X116420000Y-62500000D03*
%TD*%
D13*
%TO.C,J15*%
X184500000Y-136172500D03*
D14*
X189500000Y-136172500D03*
%TD*%
D13*
%TO.C,J1*%
X77500000Y-136500000D03*
D14*
X82500000Y-136500000D03*
%TD*%
D15*
%TO.C,Q7*%
X192950000Y-89540000D03*
D16*
X192950000Y-87000000D03*
X192950000Y-84460000D03*
%TD*%
D17*
%TO.C,D28*%
X212850000Y-125000000D03*
D18*
X205230000Y-125000000D03*
%TD*%
D19*
%TO.C,J12*%
X146480000Y-83225000D03*
D20*
X146480000Y-85765000D03*
%TD*%
D11*
%TO.C,Q3*%
X158540000Y-62500000D03*
D12*
X156000000Y-62500000D03*
X153460000Y-62500000D03*
%TD*%
D11*
%TO.C,Q2*%
X140000000Y-62500000D03*
D12*
X137460000Y-62500000D03*
X134920000Y-62500000D03*
%TD*%
D21*
%TO.C,J3*%
X117460000Y-42450000D03*
D14*
X112460000Y-42450000D03*
%TD*%
D22*
%TO.C,J9*%
X212672500Y-90500000D03*
D14*
X212672500Y-85500000D03*
%TD*%
D17*
%TO.C,D18*%
X178810000Y-54000000D03*
D18*
X171190000Y-54000000D03*
%TD*%
D11*
%TO.C,Q10*%
X183960000Y-118950000D03*
D12*
X186500000Y-118950000D03*
X189040000Y-118950000D03*
%TD*%
D23*
%TO.C,Y1*%
X109380000Y-117500000D03*
X104500000Y-117500000D03*
%TD*%
D13*
%TO.C,J13*%
X164000000Y-136172500D03*
D14*
X169000000Y-136172500D03*
%TD*%
D11*
%TO.C,Q5*%
X196580000Y-62500000D03*
D12*
X194040000Y-62500000D03*
X191500000Y-62500000D03*
%TD*%
D10*
%TO.C,H2*%
X220000000Y-146500000D03*
%TD*%
D13*
%TO.C,J11*%
X207000000Y-136000000D03*
D14*
X212000000Y-136000000D03*
%TD*%
D24*
%TO.C,J14*%
X79000000Y-92040000D03*
D20*
X79000000Y-89500000D03*
%TD*%
D10*
%TO.C,H4*%
X70500000Y-33500000D03*
%TD*%
D21*
%TO.C,J7*%
X192500000Y-42327500D03*
D14*
X187500000Y-42327500D03*
%TD*%
D17*
%TO.C,D26*%
X170310000Y-125500000D03*
D18*
X162690000Y-125500000D03*
%TD*%
D21*
%TO.C,J5*%
X154000000Y-42500000D03*
D14*
X149000000Y-42500000D03*
%TD*%
D15*
%TO.C,U4*%
X90450000Y-117040000D03*
D16*
X90450000Y-114500000D03*
X90450000Y-111960000D03*
%TD*%
D25*
%TO.C,J2*%
X95690000Y-90500000D03*
D26*
X98230000Y-90500000D03*
X100770000Y-90500000D03*
X103310000Y-90500000D03*
%TD*%
D27*
%TO.C,D24*%
X202500000Y-90310000D03*
D18*
X202500000Y-82690000D03*
%TD*%
D21*
%TO.C,J8*%
X211500000Y-42327500D03*
D14*
X206500000Y-42327500D03*
%TD*%
D17*
%TO.C,D16*%
X159810000Y-54000000D03*
D18*
X152190000Y-54000000D03*
%TD*%
D19*
%TO.C,J17*%
X98000000Y-43600000D03*
D20*
X98000000Y-46140000D03*
X98000000Y-48680000D03*
X98000000Y-51220000D03*
X98000000Y-53760000D03*
X98000000Y-56300000D03*
X98000000Y-58840000D03*
X98000000Y-61380000D03*
X98000000Y-63920000D03*
X98000000Y-66460000D03*
X98000000Y-69000000D03*
X98000000Y-71540000D03*
X98000000Y-74080000D03*
X98000000Y-76620000D03*
X98000000Y-79160000D03*
X98000000Y-81700000D03*
%TD*%
D11*
%TO.C,Q4*%
X177540000Y-62550000D03*
D12*
X175000000Y-62550000D03*
X172460000Y-62550000D03*
%TD*%
D17*
%TO.C,D14*%
X140810000Y-54000000D03*
D18*
X133190000Y-54000000D03*
%TD*%
D12*
%TO.C,Q8*%
X168540000Y-118950000D03*
X166000000Y-118950000D03*
D11*
X163460000Y-118950000D03*
%TD*%
D21*
%TO.C,J4*%
X135500000Y-42500000D03*
D14*
X130500000Y-42500000D03*
%TD*%
D17*
%TO.C,D30*%
X190310000Y-125500000D03*
D18*
X182690000Y-125500000D03*
%TD*%
D17*
%TO.C,D20*%
X198310000Y-54000000D03*
D18*
X190690000Y-54000000D03*
%TD*%
D11*
%TO.C,Q6*%
X215580000Y-62500000D03*
D12*
X213040000Y-62500000D03*
X210500000Y-62500000D03*
%TD*%
D17*
%TO.C,D22*%
X217500000Y-54000000D03*
D18*
X209880000Y-54000000D03*
%TD*%
D17*
%TO.C,D11*%
X123080000Y-53950000D03*
D18*
X115460000Y-53950000D03*
%TD*%
D24*
%TO.C,J16*%
X79000000Y-81660000D03*
D20*
X79000000Y-79120000D03*
X79000000Y-76580000D03*
X79000000Y-74040000D03*
X79000000Y-71500000D03*
X79000000Y-68960000D03*
X79000000Y-66420000D03*
X79000000Y-63880000D03*
X79000000Y-61340000D03*
X79000000Y-58800000D03*
X79000000Y-56260000D03*
X79000000Y-53720000D03*
X79000000Y-51180000D03*
X79000000Y-48640000D03*
X79000000Y-46100000D03*
X79000000Y-43560000D03*
%TD*%
D10*
%TO.C,H3*%
X220000000Y-33500000D03*
%TD*%
D21*
%TO.C,J6*%
X173500000Y-42500000D03*
D14*
X168500000Y-42500000D03*
%TD*%
D28*
%TO.C,Y2*%
X110000000Y-125000000D03*
X111500000Y-125000000D03*
%TD*%
D19*
%TO.C,J10*%
X146500000Y-115000000D03*
D20*
X146500000Y-117540000D03*
%TD*%
M02*
